<svg width="408" height="42" viewBox="0 0 408 42" fill="none" xmlns="http://www.w3.org/2000/svg">
<path d="M55.3965 22.5762V33H53.2344V7.40625H61.9531C64.6133 7.40625 66.7109 8.08594 68.2461 9.44531C69.793 10.8047 70.5664 12.6738 70.5664 15.0527C70.5664 17.4551 69.8223 19.3125 68.334 20.625C66.8574 21.9258 64.7129 22.5762 61.9004 22.5762H55.3965ZM55.3965 20.748H61.9531C64.0508 20.748 65.6504 20.25 66.752 19.2539C67.8535 18.2578 68.4043 16.8691 68.4043 15.0879C68.4043 13.3184 67.8535 11.9121 66.752 10.8691C65.6621 9.81445 64.1094 9.27539 62.0938 9.25195H55.3965V20.748ZM83.7148 15.7734C83.2695 15.6914 82.7949 15.6504 82.291 15.6504C80.9785 15.6504 79.8652 16.0195 78.9512 16.7578C78.0488 17.4844 77.4043 18.5449 77.0176 19.9395V33H74.9258V13.9805H76.9824L77.0176 17.0039C78.1309 14.7539 79.918 13.6289 82.3789 13.6289C82.9648 13.6289 83.4277 13.7051 83.7676 13.8574L83.7148 15.7734ZM85.543 23.209C85.543 21.3809 85.8945 19.7344 86.5977 18.2695C87.3125 16.8047 88.3145 15.668 89.6035 14.8594C90.9043 14.0391 92.375 13.6289 94.0156 13.6289C96.5469 13.6289 98.5977 14.5195 100.168 16.3008C101.738 18.0703 102.523 20.4199 102.523 23.3496V23.7891C102.523 25.6289 102.166 27.2871 101.451 28.7637C100.748 30.2285 99.752 31.3594 98.4629 32.1562C97.1738 32.9531 95.7031 33.3516 94.0508 33.3516C91.5312 33.3516 89.4805 32.4668 87.8984 30.6973C86.3281 28.916 85.543 26.5605 85.543 23.6309V23.209ZM87.6523 23.7891C87.6523 26.0625 88.2383 27.9316 89.4102 29.3965C90.5938 30.8496 92.1406 31.5762 94.0508 31.5762C95.9492 31.5762 97.4844 30.8496 98.6562 29.3965C99.8398 27.9316 100.432 26.0039 100.432 23.6133V23.209C100.432 21.7559 100.162 20.4258 99.623 19.2188C99.084 18.0117 98.3281 17.0801 97.3555 16.4238C96.3828 15.7559 95.2695 15.4219 94.0156 15.4219C92.1406 15.4219 90.6113 16.1602 89.4277 17.6367C88.2441 19.1016 87.6523 21.0234 87.6523 23.4023V23.7891ZM106.039 23.3145C106.039 20.3613 106.695 18.0117 108.008 16.2656C109.332 14.5078 111.125 13.6289 113.387 13.6289C115.953 13.6289 117.91 14.6426 119.258 16.6699V6H121.35V33H119.381L119.293 30.4688C117.945 32.3906 115.965 33.3516 113.352 33.3516C111.16 33.3516 109.391 32.4727 108.043 30.7148C106.707 28.9453 106.039 26.5605 106.039 23.5605V23.3145ZM108.166 23.6836C108.166 26.1094 108.652 28.0254 109.625 29.4316C110.598 30.8262 111.969 31.5234 113.738 31.5234C116.328 31.5234 118.168 30.3809 119.258 28.0957V19.166C118.168 16.6934 116.34 15.457 113.773 15.457C112.004 15.457 110.627 16.1543 109.643 17.5488C108.658 18.9316 108.166 20.9766 108.166 23.6836ZM139.121 30.5918C137.855 32.4316 135.834 33.3516 133.057 33.3516C131.029 33.3516 129.488 32.7656 128.434 31.5938C127.379 30.4102 126.84 28.6641 126.816 26.3555V13.9805H128.908V26.0918C128.908 29.7129 130.373 31.5234 133.303 31.5234C136.35 31.5234 138.277 30.2637 139.086 27.7441V13.9805H141.195V33H139.156L139.121 30.5918ZM149.949 9.11133V13.9805H153.887V15.7031H149.949V28.377C149.949 29.4316 150.137 30.2168 150.512 30.7324C150.898 31.248 151.537 31.5059 152.428 31.5059C152.779 31.5059 153.348 31.4473 154.133 31.3301L154.221 33.0527C153.67 33.252 152.92 33.3516 151.971 33.3516C150.529 33.3516 149.48 32.9355 148.824 32.1035C148.168 31.2598 147.84 30.0234 147.84 28.3945V15.7031H144.342V13.9805H147.84V9.11133H149.949ZM156.734 23.209C156.734 21.3809 157.086 19.7344 157.789 18.2695C158.504 16.8047 159.506 15.668 160.795 14.8594C162.096 14.0391 163.566 13.6289 165.207 13.6289C167.738 13.6289 169.789 14.5195 171.359 16.3008C172.93 18.0703 173.715 20.4199 173.715 23.3496V23.7891C173.715 25.6289 173.357 27.2871 172.643 28.7637C171.939 30.2285 170.943 31.3594 169.654 32.1562C168.365 32.9531 166.895 33.3516 165.242 33.3516C162.723 33.3516 160.672 32.4668 159.09 30.6973C157.52 28.916 156.734 26.5605 156.734 23.6309V23.209ZM158.844 23.7891C158.844 26.0625 159.43 27.9316 160.602 29.3965C161.785 30.8496 163.332 31.5762 165.242 31.5762C167.141 31.5762 168.676 30.8496 169.848 29.3965C171.031 27.9316 171.623 26.0039 171.623 23.6133V23.209C171.623 21.7559 171.354 20.4258 170.814 19.2188C170.275 18.0117 169.52 17.0801 168.547 16.4238C167.574 15.7559 166.461 15.4219 165.207 15.4219C163.332 15.4219 161.803 16.1602 160.619 17.6367C159.436 19.1016 158.844 21.0234 158.844 23.4023V23.7891ZM189.465 28.166C189.465 27.123 189.043 26.2852 188.199 25.6523C187.367 25.0195 186.107 24.5273 184.42 24.1758C182.732 23.8125 181.42 23.4023 180.482 22.9453C179.557 22.4766 178.865 21.9082 178.408 21.2402C177.963 20.5723 177.74 19.7637 177.74 18.8145C177.74 17.3145 178.367 16.0781 179.621 15.1055C180.875 14.1211 182.48 13.6289 184.438 13.6289C186.559 13.6289 188.258 14.1562 189.535 15.2109C190.824 16.2539 191.469 17.6191 191.469 19.3066H189.359C189.359 18.1934 188.891 17.2676 187.953 16.5293C187.027 15.791 185.855 15.4219 184.438 15.4219C183.055 15.4219 181.941 15.7324 181.098 16.3535C180.266 16.9629 179.85 17.7598 179.85 18.7441C179.85 19.6934 180.195 20.4316 180.887 20.959C181.59 21.4746 182.861 21.9492 184.701 22.3828C186.553 22.8164 187.936 23.2793 188.85 23.7715C189.775 24.2637 190.461 24.8555 190.906 25.5469C191.352 26.2383 191.574 27.0762 191.574 28.0605C191.574 29.666 190.924 30.9492 189.623 31.9102C188.334 32.8711 186.646 33.3516 184.561 33.3516C182.346 33.3516 180.547 32.8184 179.164 31.752C177.793 30.6738 177.107 29.3145 177.107 27.6738H179.217C179.299 28.9043 179.814 29.8652 180.764 30.5566C181.725 31.2363 182.99 31.5762 184.561 31.5762C186.025 31.5762 187.209 31.2539 188.111 30.6094C189.014 29.9648 189.465 29.1504 189.465 28.166ZM212.439 33.3516C210.822 33.3516 209.357 32.9531 208.045 32.1562C206.744 31.3594 205.73 30.252 205.004 28.834C204.277 27.4043 203.914 25.8047 203.914 24.0352V23.2793C203.914 21.4512 204.266 19.8047 204.969 18.3398C205.684 16.875 206.674 15.7266 207.939 14.8945C209.205 14.0508 210.576 13.6289 212.053 13.6289C214.361 13.6289 216.189 14.4199 217.537 16.002C218.896 17.5723 219.576 19.7227 219.576 22.4531V23.6309H206.006V24.0352C206.006 26.1914 206.621 27.9902 207.852 29.4316C209.094 30.8613 210.652 31.5762 212.527 31.5762C213.652 31.5762 214.643 31.3711 215.498 30.9609C216.365 30.5508 217.15 29.8945 217.854 28.9922L219.172 29.9941C217.625 32.2324 215.381 33.3516 212.439 33.3516ZM212.053 15.4219C210.471 15.4219 209.135 16.002 208.045 17.1621C206.967 18.3223 206.311 19.8809 206.076 21.8379H217.484V21.6094C217.426 19.7812 216.904 18.293 215.92 17.1445C214.936 15.9961 213.646 15.4219 212.053 15.4219ZM225.588 13.9805L225.658 17.0742C226.361 15.9258 227.24 15.0645 228.295 14.4902C229.35 13.916 230.521 13.6289 231.811 13.6289C234.811 13.6289 236.715 14.8594 237.523 17.3203C238.203 16.1367 239.111 15.2285 240.248 14.5957C241.385 13.9512 242.639 13.6289 244.01 13.6289C248.088 13.6289 250.168 15.8555 250.25 20.3086V33H248.141V20.4668C248.129 18.7676 247.76 17.5078 247.033 16.6875C246.318 15.8672 245.146 15.457 243.518 15.457C242.006 15.4805 240.729 15.9727 239.686 16.9336C238.643 17.8828 238.062 19.043 237.945 20.4141V33H235.836V20.3086C235.824 18.6797 235.438 17.4668 234.676 16.6699C233.926 15.8613 232.766 15.457 231.195 15.457C229.871 15.457 228.734 15.8379 227.785 16.5996C226.836 17.3496 226.133 18.4688 225.676 19.957V33H223.566V13.9805H225.588ZM263.504 23.3145C263.504 20.3613 264.16 18.0117 265.473 16.2656C266.797 14.5078 268.59 13.6289 270.852 13.6289C273.418 13.6289 275.375 14.6426 276.723 16.6699V6H278.814V33H276.846L276.758 30.4688C275.41 32.3906 273.43 33.3516 270.816 33.3516C268.625 33.3516 266.855 32.4727 265.508 30.7148C264.172 28.9453 263.504 26.5605 263.504 23.5605V23.3145ZM265.631 23.6836C265.631 26.1094 266.117 28.0254 267.09 29.4316C268.062 30.8262 269.434 31.5234 271.203 31.5234C273.793 31.5234 275.633 30.3809 276.723 28.0957V19.166C275.633 16.6934 273.805 15.457 271.238 15.457C269.469 15.457 268.092 16.1543 267.107 17.5488C266.123 18.9316 265.631 20.9766 265.631 23.6836ZM291.717 33.3516C290.1 33.3516 288.635 32.9531 287.322 32.1562C286.021 31.3594 285.008 30.252 284.281 28.834C283.555 27.4043 283.191 25.8047 283.191 24.0352V23.2793C283.191 21.4512 283.543 19.8047 284.246 18.3398C284.961 16.875 285.951 15.7266 287.217 14.8945C288.482 14.0508 289.854 13.6289 291.33 13.6289C293.639 13.6289 295.467 14.4199 296.814 16.002C298.174 17.5723 298.854 19.7227 298.854 22.4531V23.6309H285.283V24.0352C285.283 26.1914 285.898 27.9902 287.129 29.4316C288.371 30.8613 289.93 31.5762 291.805 31.5762C292.93 31.5762 293.92 31.3711 294.775 30.9609C295.643 30.5508 296.428 29.8945 297.131 28.9922L298.449 29.9941C296.902 32.2324 294.658 33.3516 291.717 33.3516ZM291.33 15.4219C289.748 15.4219 288.412 16.002 287.322 17.1621C286.244 18.3223 285.588 19.8809 285.354 21.8379H296.762V21.6094C296.703 19.7812 296.182 18.293 295.197 17.1445C294.213 15.9961 292.924 15.4219 291.33 15.4219ZM314.34 28.166C314.34 27.123 313.918 26.2852 313.074 25.6523C312.242 25.0195 310.982 24.5273 309.295 24.1758C307.607 23.8125 306.295 23.4023 305.357 22.9453C304.432 22.4766 303.74 21.9082 303.283 21.2402C302.838 20.5723 302.615 19.7637 302.615 18.8145C302.615 17.3145 303.242 16.0781 304.496 15.1055C305.75 14.1211 307.355 13.6289 309.312 13.6289C311.434 13.6289 313.133 14.1562 314.41 15.2109C315.699 16.2539 316.344 17.6191 316.344 19.3066H314.234C314.234 18.1934 313.766 17.2676 312.828 16.5293C311.902 15.791 310.73 15.4219 309.312 15.4219C307.93 15.4219 306.816 15.7324 305.973 16.3535C305.141 16.9629 304.725 17.7598 304.725 18.7441C304.725 19.6934 305.07 20.4316 305.762 20.959C306.465 21.4746 307.736 21.9492 309.576 22.3828C311.428 22.8164 312.811 23.2793 313.725 23.7715C314.65 24.2637 315.336 24.8555 315.781 25.5469C316.227 26.2383 316.449 27.0762 316.449 28.0605C316.449 29.666 315.799 30.9492 314.498 31.9102C313.209 32.8711 311.521 33.3516 309.436 33.3516C307.221 33.3516 305.422 32.8184 304.039 31.752C302.668 30.6738 301.982 29.3145 301.982 27.6738H304.092C304.174 28.9043 304.689 29.8652 305.639 30.5566C306.6 31.2363 307.865 31.5762 309.436 31.5762C310.9 31.5762 312.084 31.2539 312.986 30.6094C313.889 29.9648 314.34 29.1504 314.34 28.166ZM324.465 9.11133V13.9805H328.402V15.7031H324.465V28.377C324.465 29.4316 324.652 30.2168 325.027 30.7324C325.414 31.248 326.053 31.5059 326.943 31.5059C327.295 31.5059 327.863 31.4473 328.648 31.3301L328.736 33.0527C328.186 33.252 327.436 33.3516 326.486 33.3516C325.045 33.3516 323.996 32.9355 323.34 32.1035C322.684 31.2598 322.355 30.0234 322.355 28.3945V15.7031H318.857V13.9805H322.355V9.11133H324.465ZM344.768 33C344.557 32.4023 344.422 31.5176 344.363 30.3457C343.625 31.3066 342.682 32.0508 341.533 32.5781C340.396 33.0938 339.189 33.3516 337.912 33.3516C336.084 33.3516 334.602 32.8418 333.465 31.8223C332.34 30.8027 331.777 29.5137 331.777 27.9551C331.777 26.1035 332.545 24.6387 334.08 23.5605C335.627 22.4824 337.777 21.9434 340.531 21.9434H344.346V19.7812C344.346 18.4219 343.924 17.3555 343.08 16.582C342.248 15.7969 341.029 15.4043 339.424 15.4043C337.959 15.4043 336.746 15.7793 335.785 16.5293C334.824 17.2793 334.344 18.1816 334.344 19.2363L332.234 19.2188C332.234 17.707 332.938 16.4004 334.344 15.2988C335.75 14.1855 337.479 13.6289 339.529 13.6289C341.65 13.6289 343.32 14.1621 344.539 15.2285C345.77 16.2832 346.402 17.7598 346.438 19.6582V28.6582C346.438 30.498 346.631 31.875 347.018 32.7891V33H344.768ZM338.158 31.4883C339.564 31.4883 340.818 31.1484 341.92 30.4688C343.033 29.7891 343.842 28.8809 344.346 27.7441V23.5605H340.584C338.486 23.584 336.846 23.9707 335.662 24.7207C334.479 25.459 333.887 26.4785 333.887 27.7793C333.887 28.8457 334.279 29.7305 335.064 30.4336C335.861 31.1367 336.893 31.4883 338.158 31.4883ZM351.219 23.3145C351.219 20.3379 351.875 17.9824 353.188 16.248C354.512 14.502 356.316 13.6289 358.602 13.6289C361.168 13.6289 363.119 14.6074 364.455 16.5645L364.561 13.9805H366.529V40.3125H364.42V30.6445C363.037 32.4492 361.086 33.3516 358.566 33.3516C356.34 33.3516 354.559 32.4727 353.223 30.7148C351.887 28.957 351.219 26.584 351.219 23.5957V23.3145ZM353.346 23.6836C353.346 26.1445 353.838 28.0781 354.822 29.4844C355.818 30.8789 357.195 31.5762 358.953 31.5762C361.473 31.5762 363.295 30.4805 364.42 28.2891V18.9727C363.893 17.8359 363.16 16.9629 362.223 16.3535C361.297 15.7324 360.219 15.4219 358.988 15.4219C357.219 15.4219 355.836 16.125 354.84 17.5312C353.844 18.9258 353.346 20.9766 353.346 23.6836ZM384.371 30.5918C383.105 32.4316 381.084 33.3516 378.307 33.3516C376.279 33.3516 374.738 32.7656 373.684 31.5938C372.629 30.4102 372.09 28.6641 372.066 26.3555V13.9805H374.158V26.0918C374.158 29.7129 375.623 31.5234 378.553 31.5234C381.6 31.5234 383.527 30.2637 384.336 27.7441V13.9805H386.445V33H384.406L384.371 30.5918ZM399.295 33.3516C397.678 33.3516 396.213 32.9531 394.9 32.1562C393.6 31.3594 392.586 30.252 391.859 28.834C391.133 27.4043 390.77 25.8047 390.77 24.0352V23.2793C390.77 21.4512 391.121 19.8047 391.824 18.3398C392.539 16.875 393.529 15.7266 394.795 14.8945C396.061 14.0508 397.432 13.6289 398.908 13.6289C401.217 13.6289 403.045 14.4199 404.393 16.002C405.752 17.5723 406.432 19.7227 406.432 22.4531V23.6309H392.861V24.0352C392.861 26.1914 393.477 27.9902 394.707 29.4316C395.949 30.8613 397.508 31.5762 399.383 31.5762C400.508 31.5762 401.498 31.3711 402.354 30.9609C403.221 30.5508 404.006 29.8945 404.709 28.9922L406.027 29.9941C404.48 32.2324 402.236 33.3516 399.295 33.3516ZM398.908 15.4219C397.326 15.4219 395.99 16.002 394.9 17.1621C393.822 18.3223 393.166 19.8809 392.932 21.8379H404.34V21.6094C404.281 19.7812 403.76 18.293 402.775 17.1445C401.791 15.9961 400.502 15.4219 398.908 15.4219Z" fill="#084154"/>
<path d="M0 5H5.6V10.6H5C2.23858 10.6 0 8.36142 0 5.6V5Z" fill="#3EC6E0"/>
<path d="M11.2 5H16.8V10.6H16.2C13.4386 10.6 11.2 8.36142 11.2 5.6V5Z" fill="#3EC6E0"/>
<path d="M22.4 5H28V10.6H27.4C24.6386 10.6 22.4 8.36142 22.4 5.6V5Z" fill="#3EC6E0"/>
<path d="M22.4 16.2H28V21.8H27.4C24.6386 21.8 22.4 19.5614 22.4 16.8V16.2Z" fill="#3EC6E0"/>
<path d="M11.2 16.2H16.8V21.8H16.2C13.4386 21.8 11.2 19.5614 11.2 16.8V16.2Z" fill="#3EC6E0"/>
<path d="M0 16.2H5.6V21.8H5C2.23858 21.8 0 19.5614 0 16.8V16.2Z" fill="#3EC6E0"/>
<path d="M0 27.4H5.6V33H5C2.23858 33 0 30.7614 0 28V27.4Z" fill="#3EC6E0"/>
<path d="M11.2 27.4H16.8V33H16.2C13.4386 33 11.2 30.7614 11.2 28V27.4Z" fill="#3EC6E0"/>
<path d="M22.4 27.4H28V33H27.4C24.6386 33 22.4 30.7614 22.4 28V27.4Z" fill="#3EC6E0"/>
</svg>
