<svg width="302" height="42" viewBox="0 0 302 42" fill="none" xmlns="http://www.w3.org/2000/svg">
<path d="M53.2344 33V7.40625H60.3887C62.4863 7.40625 64.3672 7.88672 66.0312 8.84766C67.6953 9.79688 68.9902 11.1621 69.916 12.9434C70.8535 14.7246 71.3223 16.752 71.3223 19.0254V21.3809C71.3223 23.666 70.8594 25.6934 69.9336 27.4629C69.0078 29.2324 67.7012 30.5977 66.0137 31.5586C64.3379 32.5195 62.4102 33 60.2305 33H53.2344ZM55.3965 9.25195V31.1719H60.248C62.9434 31.1719 65.1055 30.2812 66.7344 28.5C68.3633 26.707 69.1777 24.2871 69.1777 21.2402V18.9902C69.1777 16.0488 68.375 13.6934 66.7695 11.9238C65.1641 10.1543 63.0488 9.26367 60.4238 9.25195H55.3965ZM78.6875 33H76.5781V13.9805H78.6875V33ZM76.209 8.47852C76.209 8.08008 76.3379 7.74609 76.5957 7.47656C76.8535 7.19531 77.2051 7.05469 77.6504 7.05469C78.0957 7.05469 78.4473 7.19531 78.7051 7.47656C78.9746 7.74609 79.1094 8.08008 79.1094 8.47852C79.1094 8.87695 78.9746 9.21094 78.7051 9.48047C78.4473 9.75 78.0957 9.88477 77.6504 9.88477C77.2051 9.88477 76.8535 9.75 76.5957 9.48047C76.3379 9.21094 76.209 8.87695 76.209 8.47852ZM91.4492 31.5762C92.9141 31.5762 94.1387 31.166 95.123 30.3457C96.1191 29.5137 96.6582 28.4414 96.7402 27.1289H98.7617C98.7031 28.2891 98.3398 29.3496 97.6719 30.3105C97.0039 31.2598 96.1133 32.0039 95 32.543C93.8984 33.082 92.7148 33.3516 91.4492 33.3516C88.9531 33.3516 86.9727 32.4844 85.5078 30.75C84.0547 29.0156 83.3281 26.6836 83.3281 23.7539V23.1211C83.3281 21.2461 83.6562 19.5879 84.3125 18.1465C84.9688 16.7051 85.9062 15.5918 87.125 14.8066C88.3555 14.0215 89.791 13.6289 91.4316 13.6289C93.5176 13.6289 95.2344 14.25 96.582 15.4922C97.9414 16.7344 98.668 18.3691 98.7617 20.3965H96.7402C96.6465 18.9082 96.1074 17.707 95.123 16.793C94.1504 15.8789 92.9199 15.4219 91.4316 15.4219C89.5332 15.4219 88.0566 16.1074 87.002 17.4785C85.959 18.8496 85.4375 20.7715 85.4375 23.2441V23.8594C85.4375 26.2852 85.959 28.1777 87.002 29.5371C88.0566 30.8965 89.5391 31.5762 91.4492 31.5762ZM114.986 33C114.775 32.4023 114.641 31.5176 114.582 30.3457C113.844 31.3066 112.9 32.0508 111.752 32.5781C110.615 33.0938 109.408 33.3516 108.131 33.3516C106.303 33.3516 104.82 32.8418 103.684 31.8223C102.559 30.8027 101.996 29.5137 101.996 27.9551C101.996 26.1035 102.764 24.6387 104.299 23.5605C105.846 22.4824 107.996 21.9434 110.75 21.9434H114.564V19.7812C114.564 18.4219 114.143 17.3555 113.299 16.582C112.467 15.7969 111.248 15.4043 109.643 15.4043C108.178 15.4043 106.965 15.7793 106.004 16.5293C105.043 17.2793 104.562 18.1816 104.562 19.2363L102.453 19.2188C102.453 17.707 103.156 16.4004 104.562 15.2988C105.969 14.1855 107.697 13.6289 109.748 13.6289C111.869 13.6289 113.539 14.1621 114.758 15.2285C115.988 16.2832 116.621 17.7598 116.656 19.6582V28.6582C116.656 30.498 116.85 31.875 117.236 32.7891V33H114.986ZM108.377 31.4883C109.783 31.4883 111.037 31.1484 112.139 30.4688C113.252 29.7891 114.061 28.8809 114.564 27.7441V23.5605H110.803C108.705 23.584 107.064 23.9707 105.881 24.7207C104.697 25.459 104.105 26.4785 104.105 27.7793C104.105 28.8457 104.498 29.7305 105.283 30.4336C106.08 31.1367 107.111 31.4883 108.377 31.4883ZM133.672 28.166C133.672 27.123 133.25 26.2852 132.406 25.6523C131.574 25.0195 130.314 24.5273 128.627 24.1758C126.939 23.8125 125.627 23.4023 124.689 22.9453C123.764 22.4766 123.072 21.9082 122.615 21.2402C122.17 20.5723 121.947 19.7637 121.947 18.8145C121.947 17.3145 122.574 16.0781 123.828 15.1055C125.082 14.1211 126.688 13.6289 128.645 13.6289C130.766 13.6289 132.465 14.1562 133.742 15.2109C135.031 16.2539 135.676 17.6191 135.676 19.3066H133.566C133.566 18.1934 133.098 17.2676 132.16 16.5293C131.234 15.791 130.062 15.4219 128.645 15.4219C127.262 15.4219 126.148 15.7324 125.305 16.3535C124.473 16.9629 124.057 17.7598 124.057 18.7441C124.057 19.6934 124.402 20.4316 125.094 20.959C125.797 21.4746 127.068 21.9492 128.908 22.3828C130.76 22.8164 132.143 23.2793 133.057 23.7715C133.982 24.2637 134.668 24.8555 135.113 25.5469C135.559 26.2383 135.781 27.0762 135.781 28.0605C135.781 29.666 135.131 30.9492 133.83 31.9102C132.541 32.8711 130.854 33.3516 128.768 33.3516C126.553 33.3516 124.754 32.8184 123.371 31.752C122 30.6738 121.314 29.3145 121.314 27.6738H123.424C123.506 28.9043 124.021 29.8652 124.971 30.5566C125.932 31.2363 127.197 31.5762 128.768 31.5762C130.232 31.5762 131.416 31.2539 132.318 30.6094C133.221 29.9648 133.672 29.1504 133.672 28.166ZM148.438 23.3145C148.438 20.3613 149.094 18.0117 150.406 16.2656C151.73 14.5078 153.523 13.6289 155.785 13.6289C158.352 13.6289 160.309 14.6426 161.656 16.6699V6H163.748V33H161.779L161.691 30.4688C160.344 32.3906 158.363 33.3516 155.75 33.3516C153.559 33.3516 151.789 32.4727 150.441 30.7148C149.105 28.9453 148.438 26.5605 148.438 23.5605V23.3145ZM150.564 23.6836C150.564 26.1094 151.051 28.0254 152.023 29.4316C152.996 30.8262 154.367 31.5234 156.137 31.5234C158.727 31.5234 160.566 30.3809 161.656 28.0957V19.166C160.566 16.6934 158.738 15.457 156.172 15.457C154.402 15.457 153.025 16.1543 152.041 17.5488C151.057 18.9316 150.564 20.9766 150.564 23.6836ZM176.65 33.3516C175.033 33.3516 173.568 32.9531 172.256 32.1562C170.955 31.3594 169.941 30.252 169.215 28.834C168.488 27.4043 168.125 25.8047 168.125 24.0352V23.2793C168.125 21.4512 168.477 19.8047 169.18 18.3398C169.895 16.875 170.885 15.7266 172.15 14.8945C173.416 14.0508 174.787 13.6289 176.264 13.6289C178.572 13.6289 180.4 14.4199 181.748 16.002C183.107 17.5723 183.787 19.7227 183.787 22.4531V23.6309H170.217V24.0352C170.217 26.1914 170.832 27.9902 172.062 29.4316C173.305 30.8613 174.863 31.5762 176.738 31.5762C177.863 31.5762 178.854 31.3711 179.709 30.9609C180.576 30.5508 181.361 29.8945 182.064 28.9922L183.383 29.9941C181.836 32.2324 179.592 33.3516 176.65 33.3516ZM176.264 15.4219C174.682 15.4219 173.346 16.002 172.256 17.1621C171.178 18.3223 170.521 19.8809 170.287 21.8379H181.695V21.6094C181.637 19.7812 181.115 18.293 180.131 17.1445C179.146 15.9961 177.857 15.4219 176.264 15.4219ZM195.793 23.3145C195.793 20.3379 196.449 17.9824 197.762 16.248C199.086 14.502 200.879 13.6289 203.141 13.6289C205.73 13.6289 207.699 14.6602 209.047 16.7227L209.152 13.9805H211.121V32.6133C211.121 35.0625 210.436 37.002 209.064 38.4316C207.693 39.8613 205.836 40.5762 203.492 40.5762C202.168 40.5762 200.902 40.2773 199.695 39.6797C198.5 39.0938 197.557 38.3086 196.865 37.3242L198.043 36.0586C199.531 37.8867 201.301 38.8008 203.352 38.8008C205.109 38.8008 206.48 38.2793 207.465 37.2363C208.449 36.2051 208.959 34.7695 208.994 32.9297V30.5391C207.646 32.4141 205.684 33.3516 203.105 33.3516C200.902 33.3516 199.133 32.4727 197.797 30.7148C196.461 28.957 195.793 26.584 195.793 23.5957V23.3145ZM197.92 23.6836C197.92 26.1094 198.406 28.0254 199.379 29.4316C200.352 30.8262 201.723 31.5234 203.492 31.5234C206.082 31.5234 207.916 30.3633 208.994 28.043V19.2012C208.502 17.9824 207.793 17.0566 206.867 16.4238C205.941 15.7793 204.828 15.457 203.527 15.457C201.758 15.457 200.381 16.1543 199.396 17.5488C198.412 18.9316 197.92 20.9766 197.92 23.6836ZM228.611 33C228.4 32.4023 228.266 31.5176 228.207 30.3457C227.469 31.3066 226.525 32.0508 225.377 32.5781C224.24 33.0938 223.033 33.3516 221.756 33.3516C219.928 33.3516 218.445 32.8418 217.309 31.8223C216.184 30.8027 215.621 29.5137 215.621 27.9551C215.621 26.1035 216.389 24.6387 217.924 23.5605C219.471 22.4824 221.621 21.9434 224.375 21.9434H228.189V19.7812C228.189 18.4219 227.768 17.3555 226.924 16.582C226.092 15.7969 224.873 15.4043 223.268 15.4043C221.803 15.4043 220.59 15.7793 219.629 16.5293C218.668 17.2793 218.188 18.1816 218.188 19.2363L216.078 19.2188C216.078 17.707 216.781 16.4004 218.188 15.2988C219.594 14.1855 221.322 13.6289 223.373 13.6289C225.494 13.6289 227.164 14.1621 228.383 15.2285C229.613 16.2832 230.246 17.7598 230.281 19.6582V28.6582C230.281 30.498 230.475 31.875 230.861 32.7891V33H228.611ZM222.002 31.4883C223.408 31.4883 224.662 31.1484 225.764 30.4688C226.877 29.7891 227.686 28.8809 228.189 27.7441V23.5605H224.428C222.33 23.584 220.689 23.9707 219.506 24.7207C218.322 25.459 217.73 26.4785 217.73 27.7793C217.73 28.8457 218.123 29.7305 218.908 30.4336C219.705 31.1367 220.736 31.4883 222.002 31.4883ZM237.822 13.9805L237.893 17.0742C238.596 15.9258 239.475 15.0645 240.529 14.4902C241.584 13.916 242.756 13.6289 244.045 13.6289C247.045 13.6289 248.949 14.8594 249.758 17.3203C250.438 16.1367 251.346 15.2285 252.482 14.5957C253.619 13.9512 254.873 13.6289 256.244 13.6289C260.322 13.6289 262.402 15.8555 262.484 20.3086V33H260.375V20.4668C260.363 18.7676 259.994 17.5078 259.268 16.6875C258.553 15.8672 257.381 15.457 255.752 15.457C254.24 15.4805 252.963 15.9727 251.92 16.9336C250.877 17.8828 250.297 19.043 250.18 20.4141V33H248.07V20.3086C248.059 18.6797 247.672 17.4668 246.91 16.6699C246.16 15.8613 245 15.457 243.43 15.457C242.105 15.457 240.969 15.8379 240.02 16.5996C239.07 17.3496 238.367 18.4688 237.91 19.957V33H235.801V13.9805H237.822ZM275.193 33.3516C273.576 33.3516 272.111 32.9531 270.799 32.1562C269.498 31.3594 268.484 30.252 267.758 28.834C267.031 27.4043 266.668 25.8047 266.668 24.0352V23.2793C266.668 21.4512 267.02 19.8047 267.723 18.3398C268.438 16.875 269.428 15.7266 270.693 14.8945C271.959 14.0508 273.33 13.6289 274.807 13.6289C277.115 13.6289 278.943 14.4199 280.291 16.002C281.65 17.5723 282.33 19.7227 282.33 22.4531V23.6309H268.76V24.0352C268.76 26.1914 269.375 27.9902 270.605 29.4316C271.848 30.8613 273.406 31.5762 275.281 31.5762C276.406 31.5762 277.396 31.3711 278.252 30.9609C279.119 30.5508 279.904 29.8945 280.607 28.9922L281.926 29.9941C280.379 32.2324 278.135 33.3516 275.193 33.3516ZM274.807 15.4219C273.225 15.4219 271.889 16.002 270.799 17.1621C269.721 18.3223 269.064 19.8809 268.83 21.8379H280.238V21.6094C280.18 19.7812 279.658 18.293 278.674 17.1445C277.689 15.9961 276.4 15.4219 274.807 15.4219ZM297.816 28.166C297.816 27.123 297.395 26.2852 296.551 25.6523C295.719 25.0195 294.459 24.5273 292.771 24.1758C291.084 23.8125 289.771 23.4023 288.834 22.9453C287.908 22.4766 287.217 21.9082 286.76 21.2402C286.314 20.5723 286.092 19.7637 286.092 18.8145C286.092 17.3145 286.719 16.0781 287.973 15.1055C289.227 14.1211 290.832 13.6289 292.789 13.6289C294.91 13.6289 296.609 14.1562 297.887 15.2109C299.176 16.2539 299.82 17.6191 299.82 19.3066H297.711C297.711 18.1934 297.242 17.2676 296.305 16.5293C295.379 15.791 294.207 15.4219 292.789 15.4219C291.406 15.4219 290.293 15.7324 289.449 16.3535C288.617 16.9629 288.201 17.7598 288.201 18.7441C288.201 19.6934 288.547 20.4316 289.238 20.959C289.941 21.4746 291.213 21.9492 293.053 22.3828C294.904 22.8164 296.287 23.2793 297.201 23.7715C298.127 24.2637 298.812 24.8555 299.258 25.5469C299.703 26.2383 299.926 27.0762 299.926 28.0605C299.926 29.666 299.275 30.9492 297.975 31.9102C296.686 32.8711 294.998 33.3516 292.912 33.3516C290.697 33.3516 288.898 32.8184 287.516 31.752C286.145 30.6738 285.459 29.3145 285.459 27.6738H287.568C287.65 28.9043 288.166 29.8652 289.115 30.5566C290.076 31.2363 291.342 31.5762 292.912 31.5762C294.377 31.5762 295.561 31.2539 296.463 30.6094C297.365 29.9648 297.816 29.1504 297.816 28.166Z" fill="#084154"/>
<path d="M0 5H5.6V10.6H5C2.23858 10.6 0 8.36142 0 5.6V5Z" fill="#3EC6E0"/>
<path d="M11.2 5H16.8V10.6H16.2C13.4386 10.6 11.2 8.36142 11.2 5.6V5Z" fill="#3EC6E0"/>
<path d="M22.4 5H28V10.6H27.4C24.6386 10.6 22.4 8.36142 22.4 5.6V5Z" fill="#3EC6E0"/>
<path d="M22.4 16.2H28V21.8H27.4C24.6386 21.8 22.4 19.5614 22.4 16.8V16.2Z" fill="#3EC6E0"/>
<path d="M11.2 16.2H16.8V21.8H16.2C13.4386 21.8 11.2 19.5614 11.2 16.8V16.2Z" fill="#3EC6E0"/>
<path d="M0 16.2H5.6V21.8H5C2.23858 21.8 0 19.5614 0 16.8V16.2Z" fill="#3EC6E0"/>
<path d="M0 27.4H5.6V33H5C2.23858 33 0 30.7614 0 28V27.4Z" fill="#3EC6E0"/>
<path d="M11.2 27.4H16.8V33H16.2C13.4386 33 11.2 30.7614 11.2 28V27.4Z" fill="#3EC6E0"/>
<path d="M22.4 27.4H28V33H27.4C24.6386 33 22.4 30.7614 22.4 28V27.4Z" fill="#3EC6E0"/>
</svg>
